<svg xmlns="http://www.w3.org/2000/svg" xmlns:xlink="http://www.w3.org/1999/xlink" width="54" height="56" viewBox="0 0 54 56">
  <defs>
    <clipPath id="clip-Icon-sort-09">
      <rect width="54" height="56"/>
    </clipPath>
  </defs>
  <g id="Icon-sort-09" clip-path="url(#clip-Icon-sort-09)">
    <g id="Group_2" transform="translate(0 3)">
      <path id="Path_4" d="M59.659,12.139V58.394" transform="translate(-22.203 -10.307)" fill="none" stroke="#707070" stroke-linecap="round" stroke-width="3"/>
      <path id="Path_5" d="M45.45,41.662,57.319,63.388,69.138,41.662" transform="translate(-19.809 -15.282)" fill="none" stroke="#707070" stroke-linecap="round" stroke-linejoin="round" stroke-width="3"/>
    </g>
    <g id="Rectangle_1" transform="translate(1 31)" fill="none" stroke="#707070" stroke-width="3">
      <rect width="17" height="24" rx="8.5" stroke="none"/>
      <rect x="1.5" y="1.5" width="14" height="21" rx="7" fill="none"/>
    </g>
    <g id="Group_1" transform="translate(0 -24.113)">
      <g id="Path_6" transform="translate(1.082 15.944)" fill="none">
        <path d="M8.315,10a8.523,8.523,0,0,1,8.315,8.717v-.872a8.523,8.523,0,0,1-8.315,8.717A8.523,8.523,0,0,1,0,17.846v.872A8.523,8.523,0,0,1,8.315,10Z" stroke="none"/>
        <path d="M 8.314826965332031 13 C 5.524874687194824 13 3.22175121307373 15.30847549438477 3.015095710754395 18.28158950805664 C 3.22175121307373 21.25470352172852 5.524874687194824 23.56317901611328 8.314826965332031 23.56317901611328 C 11.10477924346924 23.56317901611328 13.40790271759033 21.25470352172852 13.61455821990967 18.28158950805664 C 13.40790271759033 15.30847549438477 11.10477924346924 13 8.314826965332031 13 M 8.314826965332031 10 C 12.76767635345459 10 16.40299034118652 13.66941070556641 16.61944389343262 18.28158950805664 C 16.40299034118652 22.89376831054688 12.76767635345459 26.56317901611328 8.314826965332031 26.56317901611328 C 3.861977577209473 26.56317901611328 0.2266635894775391 22.89376831054688 0.01021003723144531 18.28158950805664 C 0.2266635894775391 13.66941070556641 3.861977577209473 10 8.314826965332031 10 Z M -3.814697265625e-06 17.8457202911377 C -3.814697265625e-06 17.99176597595215 0.003438949584960938 18.13730430603027 0.01021003723144531 18.28158950805664 C 0.003438949584960938 18.42587471008301 -3.814697265625e-06 18.57141304016113 -3.814697265625e-06 18.71745872497559 L -3.814697265625e-06 17.8457202911377 Z M 16.62965774536133 17.8457202911377 L 16.62965774536133 18.71745872497559 C 16.62965774536133 18.57141304016113 16.6262149810791 18.42587471008301 16.61944389343262 18.28158950805664 C 16.6262149810791 18.13730430603027 16.62965774536133 17.99176597595215 16.62965774536133 17.8457202911377 Z" stroke="none" fill="#707070"/>
      </g>
      <path id="Path_8" d="M162.132,14.055a61.7,61.7,0,0,1,0,6.705,6.426,6.426,0,0,1-6.865,6.384c-4.176,0-5.256-2.052-6.875-4.04" transform="translate(-145.787 20.943)" fill="none" stroke="#707070" stroke-linecap="round" stroke-width="3"/>
    </g>
  </g>
</svg>
